<svg xmlns="http://www.w3.org/2000/svg" width="168" height="22" viewBox="0 0 168 22" fill="none" id="svg-1826661364_5754">
<path d="M20.7638 1.80409C24.4012 1.80409 27.3548 4.66469 27.3548 8.1876L27.3548 13.9299C27.3548 14.284 27.0583 14.5711 26.6927 14.5711L14.8339 14.5711C14.4683 14.5711 14.1719 14.284 14.1719 13.9299L14.1719 8.1876C14.1719 4.66469 17.1255 1.80409 20.7629 1.80409L20.7638 1.80409Z" fill="#202020"/>
<path d="M6.59294 14.5711C10.233 14.5711 13.1839 11.7131 13.1839 8.1876C13.1839 4.66209 10.233 1.80409 6.59294 1.80409C2.95284 1.80409 0.00195314 4.66209 0.00195316 8.1876C0.00195318 11.7131 2.95284 14.5711 6.59294 14.5711Z" fill="#202020"/>
<path d="M0.000908886 21.5914C0.000908868 18.0658 2.95176 15.2079 6.59189 15.2079C10.232 15.2079 13.1829 18.0658 13.1829 21.5914L3.3222e-08 21.5914L0.000908886 21.5914Z" fill="#202020"/>
<path d="M14.1747 21.5914C14.1747 18.0658 17.1256 15.2079 20.7657 15.2079C24.4059 15.2079 27.3567 18.0658 27.3567 21.5914L14.1738 21.5914L14.1747 21.5914Z" fill="#202020"/>
<path d="M52.0495 8.73227L48.3885 9.27296C48.3885 7.40958 47.1779 4.85525 43.92 4.85525C40.6621 4.85525 38.3033 7.37998 38.3033 11.677C38.3033 16.5455 41.2815 18.4988 44.4783 18.4988C47.1156 18.4988 48.9467 16.846 49.8776 15.644L52.2046 17.9581C51.3667 19.0998 48.9467 21.8044 44.3854 21.8044C38.3974 21.8044 34.332 17.9877 34.332 11.677C34.332 5.36634 38.3033 1.54965 43.8577 1.54965C49.8776 1.54965 52.0178 5.72718 52.0495 8.73227Z" fill="#202020"/>
<path d="M69.0204 21.5339C69.0204 21.5339 68.1824 21.7445 67.1588 21.7445C65.2665 21.7445 64.2111 21.0228 63.9631 19.4907C63.5283 20.3023 62.2872 21.7741 59.1539 21.7741C56.0206 21.7741 54.1895 20.2112 54.1895 17.8675C54.1895 14.472 57.7576 13.4805 63.5295 13.3895L63.7774 13.3895L63.7774 12.6985C63.7774 11.106 62.7843 10.0543 60.8298 10.0543C59.0305 10.0543 58.0373 10.7452 58.0373 11.9176C58.0373 12.1578 58.0996 12.3388 58.1619 12.4891L54.8112 13.0298C54.8112 13.0298 54.6255 12.4583 54.6255 11.7071C54.6255 9.03207 57.0148 7.22902 60.9556 7.22902C65.1443 7.22902 67.4714 9.33258 67.4714 12.7884L67.4714 17.7776C67.4714 18.4992 67.7194 18.7394 68.3399 18.7394C68.5256 18.7394 68.7125 18.7098 68.8676 18.6791L69.0228 21.5339L69.0204 21.5339ZM63.7763 16.6051L63.7763 15.4031L63.5283 15.4031C59.557 15.4634 57.881 16.0644 57.881 17.4771C57.881 18.4389 58.6873 18.9796 60.1458 18.9796C62.4423 18.9796 63.7763 17.8072 63.7763 16.6051Z" fill="#202020"/>
<path d="M81.1834 7.58872L80.2221 11.1652C79.7872 10.8647 79.2912 10.7145 78.6401 10.7145C76.9959 10.7145 75.4751 12.0064 75.4751 14.5608L75.4751 21.5931L71.6895 21.5931L71.6895 7.40887L74.6065 7.28821C74.8862 8.27966 75.0719 9.87327 75.0719 10.4743L75.1648 10.4743C75.723 8.67124 76.9336 7.22902 79.1055 7.22902C79.8812 7.22902 80.5641 7.34968 81.1846 7.58986L81.1834 7.58872Z" fill="#202020"/>
<path d="M94.0285 17.2376L95.9525 19.2513C94.8359 20.6639 92.6945 21.776 89.7469 21.776C84.8754 21.776 81.9277 18.8005 81.9277 14.5331C81.9277 10.2656 84.8448 7.23092 89.3438 7.23092C93.8428 7.23092 96.077 10.0858 96.077 13.9024C96.077 14.804 95.9219 15.3754 95.9219 15.3754L85.7451 15.3754C86.0859 17.479 87.5762 18.9212 90.1512 18.9212C92.2609 18.9212 93.4091 17.9593 94.0297 17.2388L94.0285 17.2376ZM85.7439 13.3014L92.5077 13.3014C92.4771 11.438 91.2666 10.0858 89.3426 10.0858C87.4187 10.0858 86.0847 11.3174 85.7439 13.3014Z" fill="#202020"/>
<path d="M103.834 7.40801L108.551 7.40801L108.551 10.2332L103.834 10.2332L103.834 21.5923L100.049 21.5923L100.049 10.2332L97.877 10.2332L97.877 7.40801L100.049 7.40801L100.049 6.14564C100.049 2.44961 102.562 0.195793 106.069 0.195793C107.961 0.195793 109.296 0.826404 109.482 0.947063L108.333 3.86223C108.116 3.74157 107.465 3.26121 106.502 3.26121C104.796 3.26121 103.833 4.37332 103.833 6.08645L103.833 7.40915L103.834 7.40801Z" fill="#202020"/>
<path d="M124.779 14.5331C124.779 18.8005 121.739 21.776 117.115 21.776C112.492 21.776 109.451 18.8005 109.451 14.5331C109.451 10.2656 112.523 7.23092 117.115 7.23092C121.707 7.23092 124.779 10.2656 124.779 14.5331ZM120.931 14.5331C120.931 12.0083 119.442 10.236 117.115 10.236C114.788 10.236 113.299 12.0095 113.299 14.5331C113.299 17.0567 114.788 18.7709 117.115 18.7709C119.442 18.7709 120.931 17.0282 120.931 14.5331Z" fill="#202020"/>
<path d="M137.189 7.59062L136.228 11.1671C135.793 10.8666 135.297 10.7164 134.646 10.7164C133.002 10.7164 131.481 12.0083 131.481 14.5627L131.481 21.595L127.695 21.595L127.695 7.41077L130.612 7.29011C130.892 8.28156 131.078 9.87517 131.078 10.4762L131.171 10.4762C131.729 8.67314 132.939 7.23092 135.111 7.23092C135.887 7.23092 136.57 7.35158 137.19 7.59176L137.189 7.59062Z" fill="#202020"/>
<path d="M151.587 12.1867C151.587 12.7877 151.494 13.1781 151.494 13.1781L148.112 13.3887C148.142 13.2988 148.174 13.0279 148.174 12.7273C148.174 11.3455 147.213 10.2333 145.412 10.2333C143.208 10.2333 141.751 11.9157 141.751 14.4405C141.751 16.9652 143.178 18.7683 145.877 18.7683C148.297 18.7683 149.57 17.5958 150.036 17.0551L151.96 19.3385C150.904 20.6305 148.732 21.7722 145.661 21.7722C140.852 21.7722 137.904 18.7967 137.904 14.56C137.904 10.3233 140.977 7.22712 145.444 7.22712C149.26 7.22712 151.587 9.42061 151.587 12.1855L151.587 12.1867Z" fill="#202020"/>
<path d="M165.952 17.2357L167.876 19.2494C166.76 20.662 164.618 21.7741 161.671 21.7741C156.799 21.7741 153.852 18.7986 153.852 14.5312C153.852 10.2637 156.769 7.22902 161.268 7.22902C165.767 7.22902 168.001 10.0839 168.001 13.9005C168.001 14.8021 167.846 15.3735 167.846 15.3735L157.669 15.3735C158.01 17.4771 159.5 18.9193 162.075 18.9193C164.185 18.9193 165.333 17.9574 165.954 17.2369L165.952 17.2357ZM157.668 13.2995L164.432 13.2995C164.401 11.4361 163.19 10.0839 161.266 10.0839C159.343 10.0839 158.009 11.3155 157.668 13.2995Z" fill="#202020"/>
</svg>